<svg width="40" height="40" viewBox="0 0 40 40" fill="none" xmlns="http://www.w3.org/2000/svg">
<g clip-path="url(#clip0_53_158)">
<mask id="mask0_53_158" style="mask-type:luminance" maskUnits="userSpaceOnUse" x="0" y="0" width="40" height="40">
<path d="M0 40H40V0H0V40Z" fill="white"/>
</mask>
<g mask="url(#mask0_53_158)">
<path d="M27.6923 40H40V27.6923H27.6923V40Z" fill="#008CFF"/>
<path d="M15.3846 40H27.6923V27.6923H15.3846V40Z" fill="#008CFF"/>
<path d="M15.3846 27.6924H27.6923V15.3847H15.3846V27.6924Z" fill="#008CFF"/>
<path d="M12.3077 9.23071H21.5385V-5.62668e-05H12.3077V9.23071Z" fill="#F2BC57"/>
<path d="M-3.76701e-05 6.15381H6.15381V-3.76701e-05H-3.76701e-05V6.15381Z" fill="#F2BC57"/>
<path d="M-5.62668e-05 21.5386H9.23071V12.3078H-5.62668e-05V21.5386Z" fill="#F2BC57"/>
<path d="M3.07695 40H15.3846V27.6923H3.07695V40Z" fill="#008CFF"/>
<path d="M27.6923 15.3845H40V3.07683H27.6923V15.3845Z" fill="#008CFF"/>
</g>
</g>
<defs>
<clipPath id="clip0_53_158">
<rect width="40" height="40" fill="white" transform="matrix(-1 0 0 -1 40 40)"/>
</clipPath>
</defs>
</svg>
